<svg width="400" height="400" viewBox="0 0 400 400" fill="none" xmlns="http://www.w3.org/2000/svg">
<path d="M0 36C0 16.1178 16.1178 0 36 0H200V200H0V36Z" fill="#85D8E4"/>
<path d="M0 200H200V400H36C16.1178 400 0 383.882 0 364V200Z" fill="#E78385"/>
<path d="M200 0H364C383.882 0 400 16.1178 400 36V200H200V0Z" fill="#76ADFF"/>
<path d="M200 200H400V364C400 383.882 383.882 400 364 400H200V200Z" fill="#E9E9EC"/>
<path d="M107.476 126V78.4H120.94V126H107.476ZM78.644 126V78.4H92.108V126H78.644ZM83.744 108.184L83.812 96.352H114.888V108.184H83.744Z" fill="#303241"/>
<path d="M61.644 325V277.4H83.2C86.5547 277.4 89.388 277.876 91.7 278.828C94.0573 279.78 95.848 281.117 97.072 282.84C98.296 284.563 98.908 286.603 98.908 288.96C98.908 291.771 98.2507 294.105 96.936 295.964C95.6213 297.823 93.7173 299.069 91.224 299.704L91.02 298.412C93.1053 298.911 94.9187 299.727 96.46 300.86C98.0467 301.948 99.2707 303.308 100.132 304.94C100.993 306.527 101.424 308.363 101.424 310.448C101.424 312.896 100.971 315.027 100.064 316.84C99.2027 318.653 97.956 320.172 96.324 321.396C94.7373 322.62 92.8787 323.527 90.748 324.116C88.6627 324.705 86.3733 325 83.88 325H61.644ZM74.224 314.188H83.472C84.5147 314.188 85.376 314.029 86.056 313.712C86.7813 313.349 87.3253 312.828 87.688 312.148C88.096 311.468 88.3 310.652 88.3 309.7C88.3 308.793 88.096 308.045 87.688 307.456C87.28 306.867 86.6907 306.413 85.92 306.096C85.1493 305.733 84.22 305.552 83.132 305.552H74.224V314.188ZM74.224 296.236H81.024C82.112 296.236 83.0187 296.077 83.744 295.76C84.4693 295.443 85.0133 294.989 85.376 294.4C85.7387 293.765 85.92 293.04 85.92 292.224C85.92 291 85.512 290.025 84.696 289.3C83.88 288.575 82.588 288.212 80.82 288.212H74.224V296.236ZM126.381 325.68C122.255 325.68 118.697 324.887 115.705 323.3C112.713 321.668 110.401 319.447 108.769 316.636C107.137 313.78 106.321 310.539 106.321 306.912C106.321 304.192 106.774 301.676 107.681 299.364C108.587 297.052 109.857 295.057 111.489 293.38C113.121 291.657 115.047 290.343 117.269 289.436C119.535 288.484 122.006 288.008 124.681 288.008C127.31 288.008 129.69 288.461 131.821 289.368C133.997 290.275 135.855 291.567 137.397 293.244C138.983 294.921 140.185 296.893 141.001 299.16C141.862 301.427 142.247 303.92 142.157 306.64L142.089 309.496H113.529L111.965 303.172H131.957L130.733 304.532V303.24C130.733 302.243 130.461 301.381 129.917 300.656C129.418 299.885 128.738 299.296 127.877 298.888C127.015 298.48 126.041 298.276 124.953 298.276C123.411 298.276 122.119 298.593 121.077 299.228C120.079 299.817 119.309 300.679 118.765 301.812C118.221 302.945 117.949 304.305 117.949 305.892C117.949 307.705 118.311 309.269 119.037 310.584C119.807 311.899 120.918 312.919 122.369 313.644C123.865 314.369 125.678 314.732 127.809 314.732C129.214 314.732 130.438 314.551 131.481 314.188C132.569 313.825 133.725 313.191 134.949 312.284L140.797 320.512C139.21 321.781 137.601 322.801 135.969 323.572C134.382 324.297 132.795 324.819 131.209 325.136C129.622 325.499 128.013 325.68 126.381 325.68Z" fill="#303241"/>
<path d="M304.356 126.68C300.639 126.68 297.216 126.068 294.088 124.844C290.96 123.62 288.24 121.92 285.928 119.744C283.661 117.523 281.893 114.916 280.624 111.924C279.4 108.887 278.788 105.555 278.788 101.928C278.788 98.3467 279.423 95.06 280.692 92.068C282.007 89.0307 283.82 86.4013 286.132 84.18C288.444 81.9587 291.187 80.236 294.36 79.012C297.533 77.788 301.001 77.176 304.764 77.176C307.031 77.176 309.229 77.4707 311.36 78.06C313.536 78.604 315.576 79.42 317.48 80.508C319.384 81.596 321.084 82.956 322.58 84.588L314.488 93.972C313.717 93.1107 312.856 92.34 311.904 91.66C310.952 90.98 309.864 90.4587 308.64 90.096C307.461 89.688 306.147 89.484 304.696 89.484C303.019 89.484 301.432 89.7787 299.936 90.368C298.485 90.912 297.216 91.728 296.128 92.816C295.04 93.904 294.179 95.2187 293.544 96.76C292.955 98.3013 292.66 100.069 292.66 102.064C292.66 103.968 292.955 105.691 293.544 107.232C294.179 108.728 295.063 110.02 296.196 111.108C297.375 112.151 298.757 112.967 300.344 113.556C301.976 114.145 303.789 114.44 305.784 114.44C307.189 114.44 308.504 114.236 309.728 113.828C310.997 113.42 312.153 112.876 313.196 112.196C314.239 111.516 315.168 110.768 315.984 109.952L322.376 120.084C321.243 121.353 319.701 122.487 317.752 123.484C315.848 124.481 313.717 125.275 311.36 125.864C309.048 126.408 306.713 126.68 304.356 126.68Z" fill="#303241"/>
<path d="M276.084 325.68C272.412 325.68 269.035 325.068 265.952 323.844C262.869 322.62 260.195 320.897 257.928 318.676C255.661 316.455 253.893 313.848 252.624 310.856C251.4 307.819 250.788 304.509 250.788 300.928C250.788 297.301 251.4 293.992 252.624 291C253.893 288.008 255.661 285.401 257.928 283.18C260.195 280.959 262.869 279.236 265.952 278.012C269.035 276.788 272.412 276.176 276.084 276.176C279.756 276.176 283.111 276.788 286.148 278.012C289.231 279.236 291.905 280.959 294.172 283.18C296.484 285.401 298.252 288.008 299.476 291C300.7 293.992 301.312 297.279 301.312 300.86C301.312 304.487 300.7 307.819 299.476 310.856C298.252 313.848 296.484 316.455 294.172 318.676C291.905 320.897 289.231 322.62 286.148 323.844C283.111 325.068 279.756 325.68 276.084 325.68ZM276.084 313.168C277.716 313.168 279.235 312.873 280.64 312.284C282.045 311.695 283.269 310.856 284.312 309.768C285.355 308.635 286.148 307.32 286.692 305.824C287.281 304.328 287.576 302.696 287.576 300.928C287.576 299.16 287.281 297.528 286.692 296.032C286.148 294.536 285.355 293.244 284.312 292.156C283.269 291.023 282.045 290.161 280.64 289.572C279.235 288.983 277.716 288.688 276.084 288.688C274.407 288.688 272.865 288.983 271.46 289.572C270.055 290.161 268.831 291.023 267.788 292.156C266.745 293.244 265.929 294.536 265.34 296.032C264.796 297.483 264.524 299.115 264.524 300.928C264.524 302.696 264.796 304.328 265.34 305.824C265.929 307.32 266.745 308.635 267.788 309.768C268.831 310.856 270.055 311.695 271.46 312.284C272.865 312.873 274.407 313.168 276.084 313.168ZM325.669 340.64C322.541 340.64 319.436 340.187 316.353 339.28C313.271 338.419 310.755 337.285 308.805 335.88L313.089 327.244C314.087 327.879 315.129 328.423 316.217 328.876C317.351 329.375 318.529 329.737 319.753 329.964C320.977 330.191 322.269 330.304 323.629 330.304C325.805 330.304 327.573 329.987 328.933 329.352C330.339 328.763 331.359 327.833 331.993 326.564C332.673 325.295 333.013 323.663 333.013 321.668V315.956L335.665 316.296C335.348 317.792 334.577 319.152 333.353 320.376C332.129 321.555 330.588 322.507 328.729 323.232C326.916 323.912 325.012 324.252 323.017 324.252C319.753 324.252 316.875 323.527 314.381 322.076C311.888 320.58 309.916 318.517 308.465 315.888C307.015 313.259 306.289 310.176 306.289 306.64C306.289 302.968 306.992 299.749 308.397 296.984C309.848 294.173 311.797 291.975 314.245 290.388C316.693 288.801 319.504 288.008 322.677 288.008C324.037 288.008 325.329 288.144 326.553 288.416C327.777 288.688 328.911 289.073 329.953 289.572C331.041 290.071 331.993 290.683 332.809 291.408C333.625 292.088 334.283 292.836 334.781 293.652C335.325 294.468 335.688 295.329 335.869 296.236L333.285 296.848L333.897 288.756H345.729V321.668C345.729 324.705 345.276 327.38 344.369 329.692C343.463 332.049 342.125 334.044 340.357 335.676C338.635 337.308 336.527 338.532 334.033 339.348C331.585 340.209 328.797 340.64 325.669 340.64ZM326.009 315.004C327.551 315.004 328.865 314.664 329.953 313.984C331.041 313.304 331.88 312.352 332.469 311.128C333.059 309.904 333.353 308.431 333.353 306.708C333.353 304.985 333.059 303.512 332.469 302.288C331.88 301.019 331.041 300.067 329.953 299.432C328.865 298.752 327.551 298.412 326.009 298.412C324.468 298.412 323.153 298.752 322.065 299.432C320.977 300.067 320.139 301.019 319.549 302.288C319.005 303.512 318.733 304.985 318.733 306.708C318.733 308.431 319.005 309.904 319.549 311.128C320.139 312.352 320.977 313.304 322.065 313.984C323.153 314.664 324.468 315.004 326.009 315.004Z" fill="#303241"/>
<line x1="45" y1="149.5" x2="154" y2="149.5" stroke="#323141" stroke-width="7"/>
<line x1="245" y1="149.5" x2="354" y2="149.5" stroke="#323141" stroke-width="7"/>
<line x1="245" y1="349.5" x2="354" y2="349.5" stroke="#323141" stroke-width="7"/>
<line x1="45" y1="349.5" x2="154" y2="349.5" stroke="#323141" stroke-width="7"/>
</svg>
